# File created by Blade
# Date/Time:  Wed Apr 08 17:39:35 2015
# Frame Rate: 120.000 fps
#------------------------------------------------------
:FULLY-SPECIFIED
:DEGREES
2484
root 10.891485 36.948917 3.001288 187.917531 -62.113754 -514.065191
Spine -26.552673 -0.475154 -2.890240
Head 46.840630 6.300074 18.589620
LeftShoulder -9.801493 22.041306 15.162149
LeftArm 18.429617 15.235325 -73.398115
LeftForeArm 14.648558 -0.000000 24.520672
LeftHand -12.787420 -0.000000 -10.969353
LeftHandThumb1 -26.253704 0.000000 33.147579
RightShoulder -39.642954 -50.233801 21.966633
RightArm 52.726964 -12.005444 55.404912
RightForeArm 9.683968 -0.000000 19.644614
RightHand 1.448665 -0.000000 13.871507
RightHandThumb1 -24.326973 -0.000000 -32.862282
LeftUpLeg -42.178699 17.919705 -7.086152
LeftLeg 16.769561 -0.000000 -0.000000
LeftFoot -11.193589 12.752853 -4.027837
LeftToeBase 5.424459 -0.000000 -0.000000
RightUpLeg -103.829750 -12.533569 46.183395
RightLeg 84.904031 -0.000000 -0.000000
RightFoot 28.034255 -19.085729 38.457678
RightToeBase -24.449614 -0.000000 0.000000
2485
root 10.907257 36.944216 3.004648 187.969757 -62.066078 -514.072590
Spine -26.529030 -0.585577 -2.802172
Head 46.885306 6.407473 18.579997
LeftShoulder -9.810897 22.036580 15.127629
LeftArm 18.389383 15.206334 -73.341682
LeftForeArm 14.587199 -0.000000 24.523794
LeftHand -12.859956 -0.000000 -10.811793
LeftHandThumb1 -26.253704 0.000000 33.147579
RightShoulder -39.575779 -50.265768 21.887916
RightArm 52.745273 -11.955884 55.448279
RightForeArm 9.121626 -0.000000 19.711413
RightHand 1.477134 0.000000 12.921357
RightHandThumb1 -24.326973 -0.000000 -32.862282
LeftUpLeg -42.315186 17.899450 -7.078932
LeftLeg 16.900380 -0.000000 -0.000000
LeftFoot -11.186296 12.828070 -4.003996
LeftToeBase 5.203599 -0.000000 -0.000000
RightUpLeg -104.005758 -12.193445 46.263721
RightLeg 84.077786 -0.000000 -0.000000
RightFoot 27.654640 -19.282671 38.364558
RightToeBase -24.604246 -0.000000 0.000000
2486
root 10.918086 36.936479 3.008727 187.977143 -62.062391 -514.101421
Spine -26.436902 -0.728308 -2.706242
Head 46.931629 6.508988 18.547021
LeftShoulder -9.810832 22.047882 15.085421
LeftArm 18.369349 15.129364 -73.295949
LeftForeArm 14.582789 -0.000000 24.506982
LeftHand -12.946980 -0.000000 -10.723579
LeftHandThumb1 -26.253704 0.000000 33.147579
RightShoulder -39.514242 -50.293190 21.812181
RightArm 52.761672 -11.887298 55.493639
RightForeArm 8.470862 0.000000 19.804081
RightHand 1.421471 -0.000000 11.805521
RightHandThumb1 -24.326973 -0.000000 -32.862282
LeftUpLeg -42.370984 17.809901 -7.041549
LeftLeg 17.038398 -0.000000 -0.000000
LeftFoot -11.215639 12.968777 -3.924497
LeftToeBase 5.106967 -0.000000 -0.000000
RightUpLeg -104.114053 -11.972695 46.072013
RightLeg 83.224592 -0.000000 -0.000000
RightFoot 27.420308 -19.294018 38.278952
RightToeBase -24.956201 -0.000000 0.000000
2487
root 10.926258 36.929161 3.012310 187.926481 -62.068557 -514.084953
Spine -26.336425 -0.885026 -2.563851
Head 47.007075 6.646997 18.517297
LeftShoulder -9.841437 22.083589 15.012203
LeftArm 18.378135 15.073088 -73.223709
LeftForeArm 14.580686 0.000000 24.479201
LeftHand -13.022948 -0.000000 -10.660290
LeftHandThumb1 -26.253704 0.000000 33.147579
RightShoulder -39.453206 -50.327122 21.728872
RightArm 52.822763 -11.836912 55.461268
RightForeArm 7.849237 -0.000000 19.847832
RightHand 1.483749 -0.000000 10.933768
RightHandThumb1 -24.326973 -0.000000 -32.862282
LeftUpLeg -42.395865 17.702529 -6.964999
LeftLeg 17.167269 -0.000000 -0.000000
LeftFoot -11.221524 13.070914 -3.917947
LeftToeBase 4.836429 -0.000000 -0.000000
RightUpLeg -104.171442 -11.811160 45.704372
RightLeg 82.359641 -0.000000 -0.000000
RightFoot 27.297257 -19.181624 37.932718
RightToeBase -25.529388 -0.000000 0.000000
